# xmcd
#
# Track frame offsets:
#	150
#	17150
#	36584
#	55809
#	72698
#	91540
#	112586
#	127316
#
# Disc length: 1989 seconds
#
# Revision: 0
# Processed by: cddbd v1.5PL3 Copyright (c) Steve Scherf et al.
# Submitted via: dBpowerAMP V4.0
#
DISCID=6b07c308
DTITLE=StikMen - livin' proof
DYEAR=2000
DGENRE=Blues
TTITLE0=Cleanin' Up The House
TTITLE1=That's How Love Should Be
TTITLE2=Love Ain't All
TTITLE3=Livin' Proof
TTITLE4=One Lonely Heart
TTITLE5=Sorry's Just A Word
TTITLE6=Hold On Tight
TTITLE7=I'll Walk The Line For You
EXTD=
EXTT0=
EXTT1=
EXTT2=
EXTT3=
EXTT4=
EXTT5=
EXTT6=
EXTT7=
PLAYORDER=
